<svg width="198" height="198" viewBox="0 0 198 198" fill="none" xmlns="http://www.w3.org/2000/svg">
<g id="lock-closed">
<path id="Rectangle 19" d="M49.5 85.0781C41.8112 85.0781 35.5781 91.3112 35.5781 99V157.781C35.5781 170.596 45.9665 180.984 58.7812 180.984H139.219C152.033 180.984 162.422 170.596 162.422 157.781V99C162.422 91.3112 156.189 85.0781 148.5 85.0781H49.5Z" fill="#FF7051" stroke="black" stroke-width="9.28125" stroke-linejoin="round"/>
<g id="Union">
<mask id="path-2-outside-1_10_31" maskUnits="userSpaceOnUse" x="76.625" y="104.469" width="45" height="57" fill="black">
<rect fill="white" x="76.625" y="104.469" width="45" height="57"/>
<path fill-rule="evenodd" clip-rule="evenodd" d="M103.938 136.597C102.652 134.796 103.676 132.167 105.333 130.7C107.252 129 108.462 126.516 108.462 123.75C108.462 118.624 104.307 114.469 99.1812 114.469C94.0553 114.469 89.9 118.624 89.9 123.75C89.9 126.516 91.1101 129 93.0297 130.7C94.6862 132.167 95.7106 134.796 94.4244 136.597L87.2067 146.702C85.7441 148.749 87.2078 151.594 89.7242 151.594H108.638C111.155 151.594 112.618 148.749 111.156 146.702L103.938 136.597Z"/>
</mask>
<path fill-rule="evenodd" clip-rule="evenodd" d="M103.938 136.597C102.652 134.796 103.676 132.167 105.333 130.7C107.252 129 108.462 126.516 108.462 123.75C108.462 118.624 104.307 114.469 99.1812 114.469C94.0553 114.469 89.9 118.624 89.9 123.75C89.9 126.516 91.1101 129 93.0297 130.7C94.6862 132.167 95.7106 134.796 94.4244 136.597L87.2067 146.702C85.7441 148.749 87.2078 151.594 89.7242 151.594H108.638C111.155 151.594 112.618 148.749 111.156 146.702L103.938 136.597Z" fill="#FFF4D9"/>
<path d="M87.2067 146.702L94.7592 152.096L94.7592 152.096L87.2067 146.702ZM111.156 146.702L118.708 141.307L118.708 141.307L111.156 146.702ZM93.0297 130.7L86.8757 137.648L93.0297 130.7ZM105.333 130.7L99.1787 123.752L105.333 130.7ZM103.938 136.597L96.3855 141.992L103.938 136.597ZM99.1812 123.75C99.1812 123.757 99.1809 123.761 99.1808 123.761C99.1807 123.762 99.1808 123.761 99.1813 123.759C99.1824 123.754 99.1841 123.749 99.1857 123.746C99.1871 123.743 99.1875 123.742 99.186 123.745C99.1844 123.747 99.1818 123.75 99.1787 123.752L111.487 137.648C115.311 134.26 117.744 129.283 117.744 123.75H99.1812ZM99.1812 123.75H117.744C117.744 113.498 109.433 105.188 99.1812 105.188V123.75ZM99.1812 123.75V105.188C88.9295 105.188 80.6187 113.498 80.6187 123.75H99.1812ZM99.1837 123.752C99.1806 123.75 99.1781 123.747 99.1764 123.745C99.1749 123.742 99.1754 123.743 99.1768 123.746C99.1784 123.749 99.1801 123.754 99.1812 123.759C99.1817 123.761 99.1818 123.762 99.1817 123.761C99.1816 123.761 99.1812 123.757 99.1812 123.75H80.6187C80.6187 129.283 83.0516 134.26 86.8757 137.648L99.1837 123.752ZM94.7592 152.096L101.977 141.992L86.8719 131.202L79.6542 141.307L94.7592 152.096ZM89.7242 142.312C94.7569 142.312 97.6844 148.001 94.7592 152.096L79.6542 141.307C73.8038 149.498 79.6588 160.875 89.7242 160.875V142.312ZM108.638 142.312H89.7242V160.875H108.638V142.312ZM103.603 152.096C100.678 148.001 103.605 142.312 108.638 142.312V160.875C118.704 160.875 124.559 149.498 118.708 141.307L103.603 152.096ZM96.3855 141.992L103.603 152.096L118.708 141.307L111.49 131.202L96.3855 141.992ZM86.8757 137.648C86.4717 137.29 86.1172 136.816 85.9018 136.057C85.6709 135.243 85.4293 133.222 86.8719 131.202L101.977 141.992C104.706 138.171 104.595 133.935 103.759 130.99C102.939 128.099 101.244 125.578 99.1837 123.752L86.8757 137.648ZM99.1787 123.752C97.1182 125.578 95.4232 128.099 94.603 130.99C93.7674 133.935 93.6566 138.171 96.3855 141.992L111.49 131.202C112.933 133.222 112.691 135.243 112.461 136.057C112.245 136.816 111.891 137.29 111.487 137.648L99.1787 123.752Z" fill="black" mask="url(#path-2-outside-1_10_31)"/>
</g>
<path id="Vector 37" d="M99 38.6719C85.0781 38.6719 81.9844 47.9531 81.9844 55.6875V85.0781H60.3281V52.5938C60.3281 38.6719 66.5156 17.0156 99 17.0156C131.484 17.0156 137.672 38.6719 137.672 52.5938V85.0781H116.016V55.6875C116.016 47.9531 112.922 38.6719 99 38.6719Z" fill="#FFF4D9" stroke="black" stroke-width="9.28125"/>
</g>
</svg>
